HIERARCHY
ROOT Hips
{
	OFFSET -3.958830 18.904000 13.208200
	CHANNELS 6 Xposition Yposition Zposition Zrotation Yrotation Xrotation 
	JOINT LHipJoint
	{
		OFFSET 0.000000 0.000000 0.000000
		CHANNELS 3 Zrotation Yrotation Xrotation
		JOINT LeftUpLeg
		{
			OFFSET 1.800000 -1.400000 0.085000
			CHANNELS 3 Zrotation Yrotation Xrotation
			JOINT LeftLeg
			{
				OFFSET 2.215000 -6.000000 0.000000
				CHANNELS 3 Zrotation Yrotation Xrotation
				JOINT LeftFoot
				{
					OFFSET 2.500000 -6.900000 0.000000
					CHANNELS 3 Zrotation Yrotation Xrotation
					JOINT LeftToeBase
					{
						OFFSET 0.200000 -0.500000 1.950000
						CHANNELS 3 Zrotation Yrotation Xrotation
						End Site
						{
							OFFSET 0.000000 0.000000 0.000000
						}
					}
				}
			}
		}
	}
	JOINT RHipJoint
	{
		OFFSET 0.000000 0.000000 0.000000
		CHANNELS 3 Zrotation Yrotation Xrotation
		JOINT RightUpLeg
		{
			OFFSET -1.800000 -1.400000 0.085000
			CHANNELS 3 Zrotation Yrotation Xrotation
			JOINT RightLeg
			{
				OFFSET -2.215000 -6.000000 0.000000
				CHANNELS 3 Zrotation Yrotation Xrotation
				JOINT RightFoot
				{
					OFFSET -2.500000 -6.900000 0.000000
					CHANNELS 3 Zrotation Yrotation Xrotation
					JOINT RightToeBase
					{
						OFFSET -0.200000 -0.500000 1.950000
						CHANNELS 3 Zrotation Yrotation Xrotation
						End Site
						{
							OFFSET 0.000000 0.000000 0.000000
						}
					}
				}
			}
		}
	}
	JOINT LowerBack
	{
		OFFSET 0.000000 0.000000 0.000000
		CHANNELS 3 Zrotation Yrotation Xrotation
		JOINT Spine
		{
			OFFSET -0.087000 1.940000 -0.288900
			CHANNELS 3 Zrotation Yrotation Xrotation
			JOINT Spine1
			{
				OFFSET 0.000000 1.950000 0.060000
				CHANNELS 3 Zrotation Yrotation Xrotation
				JOINT Neck
				{
					OFFSET 0.000000 0.000000 0.000000
					CHANNELS 3 Zrotation Yrotation Xrotation
					JOINT Neck1
					{
						OFFSET 0.000000 1.600000 0.340000
						CHANNELS 3 Zrotation Yrotation Xrotation
						JOINT Head
						{
							OFFSET 0.000000 1.667000 -0.240000
							CHANNELS 3 Zrotation Yrotation Xrotation
							End Site
							{
								OFFSET 0.000000 0.000000 0.000000
							}
						}
					}
				}
				JOINT LeftShoulder
				{
					OFFSET 0.000000 0.000000 0.000000
					CHANNELS 3 Zrotation Yrotation Xrotation
					JOINT LeftArm
					{
						OFFSET 2.700000 1.550000 -0.730000
						CHANNELS 3 Zrotation Yrotation Xrotation
						JOINT LeftForeArm
						{
							OFFSET 5.450000 0.000000 0.000000
							CHANNELS 3 Zrotation Yrotation Xrotation
							JOINT LeftHand
							{
								OFFSET 3.450000 0.000000 0.000000
								CHANNELS 3 Zrotation Yrotation Xrotation
								JOINT LeftHandIndex1
								{
									OFFSET 0.750000 0.000000 0.000000
									CHANNELS 3 Zrotation Yrotation Xrotation
									End Site
									{
										OFFSET 0.000000 0.000000 0.000000
									}
								}
							}
						}
					}
				}
				JOINT RightShoulder
				{
					OFFSET 0.000000 0.000000 0.000000
					CHANNELS 3 Zrotation Yrotation Xrotation
					JOINT RightArm
					{
						OFFSET -2.700000 1.550000 -0.730000
						CHANNELS 3 Zrotation Yrotation Xrotation
						JOINT RightForeArm
						{
							OFFSET -5.450000 0.000000 0.000000
							CHANNELS 3 Zrotation Yrotation Xrotation
							JOINT RightHand
							{
								OFFSET -3.450000 0.000000 0.000000
								CHANNELS 3 Zrotation Yrotation Xrotation
								JOINT RightHandIndex1
								{
									OFFSET -0.750000 0.000000 0.000000
									CHANNELS 3 Zrotation Yrotation Xrotation
									End Site
									{
										OFFSET 0.000000 0.000000 0.000000
									}
								}
							}
						}
					}
				}
			}
		}
	}
}
MOTION
Frames: 12
Frame Time: 0.016667
0.188690 16.961560 -1.581270 -5.223977 -14.364210 6.431902 -15.243564 12.217120 4.368866 18.364174 -4.231841 -32.670129 -11.275822 14.651525 40.952539 0.112585 8.970341 1.256430 0.578280 0.173410 0.616210 18.402255 -9.358468 3.726659 -2.244659 9.308501 -38.696959 -7.325356 -2.458943 39.873399 -0.497768 -4.503542 2.789197 0.096620 -0.025470 0.170870 -3.589264 -2.175816 -8.882337 5.926259 -3.548902 31.493418 -7.437297 -0.698127 -0.784840 1.998907 -3.790723 -7.656380 -10.793200 8.338098 45.668965 -3.699200 6.605090 -10.995650 -26.062622 -4.825730 0.789248 -31.480190 5.873121 -9.737201 -45.790390 -24.906433 5.145053 -3.410051 3.168975 0.726250 -0.055660 0.138370 0.142240 21.837517 7.280284 3.535639 53.268986 -2.440027 -15.806887 42.001001 33.171080 6.109640 2.203864 -1.534517 -0.187180 0.147780 -0.173160 -0.335190 
0.192850 16.969930 -1.588670 -5.553552 -14.840574 6.332613 -15.252057 12.143391 4.476597 19.415947 -4.086579 -32.585120 -12.813185 15.317746 40.425271 0.157615 9.141773 1.199053 0.586050 0.188290 0.626980 18.404105 -9.312804 3.686083 -2.541986 9.326755 -38.426932 -6.333207 -2.851557 39.738626 -0.498728 -4.474288 2.808199 0.098840 -0.034640 0.155490 -3.592780 -2.174993 -8.919821 6.097515 -3.699716 31.943997 -7.394035 -0.752482 -0.774021 1.962036 -3.980057 -7.821609 -11.343333 8.703918 46.283125 -3.664070 6.721770 -11.363110 -25.958322 -4.969021 0.921429 -31.454868 6.094508 -9.858168 -46.009283 -25.181400 5.257407 -3.394777 3.148236 0.734260 -0.068960 0.149820 0.144170 21.808132 7.566662 3.630185 53.221683 -2.347660 -15.909820 41.869774 33.642223 6.231403 2.207283 -1.517769 -0.186750 0.164590 -0.183110 -0.334650 
0.197690 16.979380 -1.596470 -5.883272 -15.623972 6.449250 -15.302255 11.970604 4.720220 21.204538 -3.905760 -32.765138 -15.955888 16.606235 39.313511 0.240340 9.489644 1.077339 0.602620 0.207470 0.646510 18.388682 -9.173253 3.609474 -3.237804 9.324187 -38.297751 -4.700355 -3.497260 39.495932 -0.496814 -4.453900 2.813546 0.108260 -0.055090 0.143620 -3.531210 -2.239653 -9.005702 5.833189 -3.650427 31.992760 -6.942441 -0.746553 -0.387500 1.897839 -4.146275 -8.003062 -11.885429 9.123811 46.889138 -3.818700 6.990700 -11.559870 -25.448524 -4.960307 1.067773 -31.815519 6.185485 -10.032397 -46.608444 -25.736355 5.538640 -3.382233 3.144757 0.742630 -0.084000 0.161000 0.144240 21.470113 7.758024 3.700320 52.951144 -2.148226 -15.895448 42.210960 34.240210 6.526547 2.209406 -1.521935 -0.185380 0.167510 -0.197380 -0.341220 
0.203580 16.994340 -1.598490 -6.208408 -16.610086 6.670667 -15.378198 11.737579 5.082430 23.482916 -3.662969 -33.103370 -20.324769 18.243598 37.651782 0.380017 9.941280 0.923325 0.602580 0.221270 0.653060 18.359640 -9.009971 3.463115 -4.236430 9.111538 -37.840471 -2.545243 -4.299798 38.571467 -0.475905 -4.366770 2.838694 0.106450 -0.072470 0.139770 -3.427609 -2.322737 -9.119419 5.340508 -3.474713 31.622424 -6.314986 -0.702215 0.215017 1.865958 -4.164669 -8.288969 -12.210488 9.438833 47.805486 -4.195040 7.345180 -11.494040 -24.691137 -5.082123 1.329318 -32.388056 6.187754 -10.142341 -47.255695 -25.581302 5.528020 -3.386312 3.138223 0.734800 -0.091120 0.174660 0.135540 20.853359 8.025187 3.833136 52.780959 -1.909795 -15.904112 42.369476 34.873627 6.781726 2.219994 -1.519702 -0.171050 0.162720 -0.201970 -0.337920 
0.217150 17.018810 -1.597430 -6.568439 -17.681431 6.890516 -15.457717 11.518908 5.449574 25.728337 -3.357538 -33.231836 -25.090896 19.567876 35.203497 0.492351 10.306338 0.800113 0.602410 0.215470 0.662480 18.326299 -8.847699 3.301893 -5.558338 8.821634 -37.211457 -0.060779 -5.224046 37.494507 -0.465359 -4.318152 2.844421 0.097000 -0.088090 0.151100 -3.318136 -2.441486 -9.226693 5.004169 -3.347555 31.268538 -5.730677 -0.657933 0.744883 1.906063 -4.307396 -8.630006 -12.891821 9.901256 48.728825 -4.745940 7.654370 -11.736670 -24.002175 -5.207494 1.513370 -33.471342 5.920924 -10.221936 -46.936270 -25.133093 5.191389 -3.396364 3.122099 0.750800 -0.099510 0.189990 0.123970 20.149487 8.342917 4.107859 52.541646 -1.966281 -16.082464 42.889908 35.945679 7.270394 2.214171 -1.515561 -0.163750 0.155950 -0.192950 -0.345720 
0.222670 17.041630 -1.590260 -6.730645 -18.685413 7.133910 -15.556813 11.276600 5.851604 28.167620 -2.952915 -33.196199 -30.782579 20.636712 31.768511 0.627209 10.591046 0.709342 0.620110 0.232760 0.679090 18.282801 -8.664033 3.118415 -7.244303 8.407445 -36.482856 2.721831 -6.193832 36.134218 -0.461871 -4.295857 2.839144 0.096560 -0.110330 0.166080 -3.176024 -2.588385 -9.340413 4.259754 -3.179205 30.554597 -5.048919 -0.733353 1.311018 1.887405 -4.472373 -8.923091 -13.559519 10.557364 49.380688 -4.947010 8.069200 -12.046250 -23.282153 -5.247506 1.705919 -34.742658 5.614017 -10.261213 -46.274926 -24.455154 4.719627 -3.397341 3.122860 0.758710 -0.110740 0.209680 0.119070 19.562001 8.580714 4.294101 52.133823 -1.890835 -16.031275 43.534597 36.624692 7.707462 2.214905 -1.525840 -0.143240 0.138720 -0.198110 -0.348120 
0.228620 17.056590 -1.575700 -6.793734 -19.593724 7.743065 -15.668220 11.034797 6.196013 30.342162 -2.449721 -33.153000 -36.210140 20.937522 27.632481 0.738214 10.700795 0.693728 0.617380 0.230370 0.673450 18.237161 -8.422937 3.009195 -9.250427 8.120577 -36.373412 5.582095 -7.211473 35.132686 -0.461970 -4.402731 2.794426 0.093260 -0.102820 0.170970 -3.021207 -2.790819 -9.455648 3.536856 -2.973484 29.061193 -4.149545 -0.847434 1.892150 1.775446 -4.757023 -9.161402 -14.465905 11.324703 49.500142 -4.863770 8.397210 -11.321460 -22.478419 -5.102059 1.810282 -36.410994 4.964592 -10.034452 -45.150101 -22.811748 3.876261 -3.419397 3.115612 0.745550 -0.103780 0.204640 0.121170 19.089126 8.693533 4.490812 51.558710 -2.043764 -15.911391 44.254326 37.459113 8.241614 2.214970 -1.544982 -0.136540 0.131670 -0.197610 -0.341540 
0.233530 17.067470 -1.556250 -6.921592 -20.384014 8.518157 -15.767919 10.792688 6.479859 32.284439 -1.847151 -32.876800 -41.068902 20.511716 23.172302 0.810168 10.698156 0.722136 0.590780 0.202800 0.653000 18.204082 -8.174697 2.952767 -11.318220 7.903384 -36.472780 8.457973 -8.187013 34.038132 -0.459704 -4.542746 2.745415 0.084210 -0.075930 0.159670 -2.906755 -2.962309 -9.559119 3.231389 -2.894888 27.149590 -3.414530 -1.019249 2.482224 1.668609 -5.136615 -9.441130 -15.599949 12.218682 49.556660 -4.825030 8.753730 -10.354950 -21.522489 -4.968235 1.964697 -38.406712 4.307497 -9.726249 -43.808594 -20.742042 2.888684 -3.454869 3.077244 0.735500 -0.089300 0.185230 0.119880 18.438494 8.848886 4.691852 51.440191 -1.954401 -15.750125 44.181552 37.960106 8.470185 2.212812 -1.537287 -0.153510 0.148320 -0.182140 -0.337840 
0.244900 17.072500 -1.531830 -7.186007 -21.113437 9.315519 -15.854177 10.558397 6.696419 33.932068 -1.245369 -32.106840 -45.089496 19.285835 18.446486 0.861545 10.558386 0.780732 0.597700 0.213610 0.648190 18.180133 -7.927359 2.941003 -13.482241 7.725336 -36.615423 11.488632 -9.162410 32.905360 -0.487910 -4.738505 2.662453 0.087600 -0.076510 0.161870 -2.827741 -3.106519 -9.643491 3.308488 -2.893531 25.087524 -2.688393 -1.210397 3.198889 1.558812 -5.599746 -9.747034 -17.015622 13.072553 49.652423 -4.619660 8.846140 -9.825330 -20.302688 -4.779100 2.140305 -40.906378 3.520899 -9.439228 -42.570174 -18.620719 1.955996 -3.464710 3.073434 0.727970 -0.092760 0.185880 0.124940 17.513886 9.027120 4.900914 51.212919 -1.716225 -15.479395 44.106386 38.176329 8.607031 2.217657 -1.552132 -0.143970 0.140290 -0.186880 -0.328890 
0.254290 17.064090 -1.503850 -7.575652 -21.704748 10.307706 -15.940222 10.321154 6.882055 35.385500 -0.708514 -31.309330 -48.261945 17.817249 14.158033 0.914349 10.434287 0.842083 0.586230 0.197000 0.624630 18.160731 -7.650985 2.966996 -15.540163 7.560124 -36.955004 14.476307 -10.099111 31.769429 -0.510166 -4.973769 2.576226 0.078710 -0.056620 0.164460 -2.762152 -3.272785 -9.717956 3.640100 -2.985470 22.764566 -1.777322 -1.473629 3.764929 1.412649 -6.202807 -10.109198 -18.758652 14.021166 49.228059 -4.181510 8.830860 -8.442400 -18.900697 -4.518085 2.360365 -43.914224 2.719599 -9.071656 -41.022415 -16.550975 1.114755 -3.488233 3.077520 0.706210 -0.082210 0.165720 0.132270 16.496859 9.223943 5.206531 50.633372 -1.711086 -15.098704 44.667006 38.322413 8.926213 2.221014 -1.578195 -0.139850 0.129080 -0.181670 -0.315970 
0.267640 17.055510 -1.481640 -7.728580 -22.063345 10.921178 -16.017072 10.187783 6.968304 35.927388 -0.551120 -30.407836 -50.052741 16.235472 10.743099 0.953145 10.250153 0.922716 0.580600 0.196000 0.601290 18.124039 -7.415872 3.006894 -17.669739 7.200302 -37.025938 17.419601 -10.916650 30.407361 -0.543482 -5.196008 2.493798 0.073570 -0.037790 0.159260 -2.655063 -3.509027 -9.755733 3.540444 -3.042767 20.843916 -0.458313 -1.787096 4.174155 1.197137 -6.809703 -10.579005 -20.689258 15.155533 48.909305 -3.321680 8.772150 -7.323820 -17.598051 -4.509880 2.731332 -46.975523 2.091362 -8.823832 -39.553419 -15.037481 0.510056 -3.490887 3.079992 0.687900 -0.082840 0.155880 0.146780 15.793790 9.722517 5.589743 49.445039 -1.774356 -14.691693 45.016588 38.568489 9.234368 2.231696 -1.595581 -0.133440 0.128740 -0.185640 -0.294520 
0.280230 17.045890 -1.461230 -7.852773 -22.213560 11.291192 -16.083394 10.134801 6.992046 36.003434 -0.622793 -29.802196 -50.786794 15.089796 8.625402 0.960940 10.109554 0.980696 0.571200 0.191280 0.575280 18.081277 -7.244058 3.025315 -19.335251 6.734598 -36.787911 19.693931 -11.449750 29.000753 -0.554489 -5.346207 2.448413 0.073220 -0.010500 0.147270 -2.529100 -3.757194 -9.750337 3.285627 -3.125519 19.130213 1.016333 -2.131641 4.557910 0.947922 -7.293061 -10.864180 -22.340176 16.059502 48.545958 -2.507070 8.569400 -6.328730 -16.472243 -4.489522 2.952102 -50.033407 0.988366 -8.231237 -37.341505 -13.406237 -0.035467 -3.509538 3.065524 0.667130 -0.072880 0.132690 0.155130 15.333500 10.097103 5.838169 47.613179 -1.650084 -13.988216 45.842752 38.487823 9.633093 2.231157 -1.606004 -0.136370 0.139030 -0.179410 -0.279650 
